<svg width="130" height="227" viewBox="0 0 130 227" fill="none" xmlns="http://www.w3.org/2000/svg">
<g opacity="0.9">
<path fill-rule="evenodd" clip-rule="evenodd" d="M0.273438 194.511V166.941H13.6243C17.2811 166.941 20.2455 169.905 20.2455 173.562C20.2455 177.219 17.2811 180.183 13.6243 180.183H14.6012C18.4378 180.183 21.548 183.293 21.548 187.13V187.855C21.548 191.747 18.3507 194.88 14.4595 194.8L0.273438 194.511ZM5.04936 183.005H11.7791C13.9371 183.005 15.6866 184.755 15.6866 186.913C15.6866 189.071 13.9371 190.82 11.7791 190.82H5.04936V183.005ZM4.39809 177.144V170.631H10.4765C12.2749 170.631 13.7328 172.089 13.7328 173.887C13.7328 175.686 12.2749 177.144 10.4765 177.144H4.39809Z" fill="#C87239"/>
<path d="M25.8899 174.755L25.6729 194.51H31.1C30.9553 189.662 30.6659 179.531 30.6659 177.794C33.0972 177.099 36.5996 177.649 38.0468 178.011C38.1192 177.432 38.3073 175.797 38.481 173.887C33.7919 172.323 28.1332 173.814 25.8899 174.755Z" fill="#C87239"/>
<path fill-rule="evenodd" clip-rule="evenodd" d="M62.3718 180.828C63.8914 175.184 67.5818 172.578 77.7849 174.098C79.5214 174.445 80.2446 174.822 80.3894 174.967V195.807C80.0999 197.76 78.436 201.712 74.0945 201.886C68.6673 202.103 63.4567 201.451 62.8054 201.234L63.8913 196.675C66.4964 197.615 72.2703 198.932 74.528 196.675C75.3963 195.98 75.614 193.636 75.614 192.551C73.7326 193.057 69.3187 193.852 66.7136 192.984C63.4573 191.899 60.8523 186.472 62.3718 180.828ZM75.6032 177.144C72.6364 176.493 66.746 176.884 66.9197 183.657C66.9198 188.433 69.742 189.952 75.6032 188.432V177.144Z" fill="#C87239"/>
<path fill-rule="evenodd" clip-rule="evenodd" d="M43.0398 173.887C47.0197 172.947 55.3702 172.368 56.9333 177.578C56.9333 182.962 57.0778 190.82 57.1501 194.077C54.4726 194.366 48.3798 194.858 45.4275 194.51C41.7372 194.076 40.8689 189.734 40.8689 186.478C40.8692 183.222 44.7766 181.486 52.157 181.703C52.157 179.749 52.3743 177.795 49.7693 177.361C47.6852 177.014 44.4146 177.651 43.0398 178.012V173.887ZM52.3748 185.923C50.0023 185.642 45.293 185.81 45.4314 188.731C45.4314 190.791 47.6879 191.447 52.3748 190.792V185.923Z" fill="#C87239"/>
<path fill-rule="evenodd" clip-rule="evenodd" d="M87.5417 173.859C91.5217 172.918 99.8721 172.34 101.435 177.549C101.435 182.933 101.58 190.792 101.652 194.048C98.9746 194.338 92.8818 194.829 89.9294 194.482C86.2391 194.048 85.3708 189.706 85.3708 186.45C85.3712 183.194 89.2785 181.457 96.6589 181.674C96.6589 179.721 96.8763 177.767 94.2712 177.333C92.1873 176.985 88.9167 177.622 87.5417 177.984V173.859ZM96.8767 185.896C94.5043 185.615 89.7948 185.783 89.9333 188.705C89.9333 190.765 92.1897 191.421 96.8767 190.765V185.896Z" fill="#C87239"/>
<path fill-rule="evenodd" clip-rule="evenodd" d="M113.593 166.504C124.23 165.636 128.138 174.536 120.974 180.398C125.532 183.22 126.183 188.864 124.23 191.252C122.275 193.64 115.329 196.896 110.336 193.857C105.343 190.817 105.343 184.088 110.336 180.398C106.212 180.397 104.258 167.266 113.593 166.504ZM114.685 182.352C113.738 182.429 111.586 183.559 110.554 187.46C112.619 193.266 120.268 190.961 120.103 187.835C120.102 185.632 118.557 183.513 114.685 182.352ZM119.673 173.554C117.983 167.749 111.725 170.053 111.859 173.178C111.859 175.382 113.124 177.501 116.293 178.662C117.068 178.585 118.828 177.454 119.673 173.554Z" fill="#C87239"/>
<path d="M17.2065 11.5056C17.2065 5.15124 22.3578 0 28.7122 0C35.0665 0 40.2178 5.15124 40.2178 11.5056V42.1149L38.9799 42.7428C30.0907 47.2518 23.0236 54.6821 18.9653 63.7859L17.2065 67.7312V11.5056Z" fill="#C87239"/>
<path fill-rule="evenodd" clip-rule="evenodd" d="M63.0122 39.5107C88.3097 39.5109 108.817 60.0189 108.817 85.3164V100.513C108.817 125.81 88.3096 146.317 63.0122 146.317C37.7147 146.317 17.2067 125.81 17.2065 100.513V85.3164C17.2065 60.0188 37.7146 39.5107 63.0122 39.5107ZM62.7944 62.957C50.3256 62.9572 40.2173 73.0653 40.2173 85.5342V100.296C40.2174 112.765 50.3257 122.873 62.7944 122.873C75.2633 122.873 85.3714 112.765 85.3716 100.296V85.5342C85.3716 73.0652 75.2634 62.957 62.7944 62.957Z" fill="#C87239"/>
<path d="M3.19953 210.913V218.548C3.19953 220.263 4.28185 221.47 6.19672 221.47C8.1116 221.47 9.20224 220.263 9.20224 218.548V210.913H11.0588V218.706C11.0588 221.295 9.21057 223.127 6.19672 223.127C3.18288 223.127 1.33461 221.295 1.33461 218.706V210.913H3.19953ZM18.1855 222.927H16.3206V212.52H12.5741V210.913H21.9237V212.52H18.1855V222.927ZM25.3122 222.927H23.4472V210.913H25.3122V222.927ZM34.9864 221.312V222.927H27.5268V210.913H29.3917V221.312H34.9864ZM38.4499 222.927H36.5849V210.913H38.4499V222.927ZM45.5765 222.927H43.7116V212.52H39.9651V210.913H49.3147V212.52H45.5765V222.927ZM56.0417 222.927H54.1768V218.006L49.9474 210.913H52.0288L55.0926 216.216H55.1509L58.2147 210.913H60.2794L56.0417 218.006V222.927ZM65.0083 219.58H66.8483C66.9815 220.77 68.1387 221.553 69.7206 221.553C71.2358 221.553 72.3265 220.77 72.3265 219.696C72.3265 218.764 71.6688 218.206 70.1119 217.823L68.555 217.449C66.3487 216.916 65.3247 215.883 65.3247 214.21C65.3247 212.137 67.1313 210.713 69.6956 210.713C72.2349 210.713 73.9749 212.137 74.0332 214.21H72.2182C72.11 213.011 71.1193 212.287 69.6706 212.287C68.222 212.287 67.2312 213.019 67.2312 214.085C67.2312 214.934 67.864 215.434 69.4125 215.817L70.7363 216.141C73.2007 216.724 74.2247 217.715 74.2247 219.472C74.2247 221.72 72.4347 223.127 69.5874 223.127C66.9232 223.127 65.1249 221.753 65.0083 219.58ZM80.985 222.927H79.1201V218.006L74.8907 210.913H76.9721L80.0359 216.216H80.0942L83.158 210.913H85.2227L80.985 218.006V222.927ZM85.9054 219.58H87.7454C87.8786 220.77 89.0358 221.553 90.6177 221.553C92.1329 221.553 93.2236 220.77 93.2236 219.696C93.2236 218.764 92.5659 218.206 91.009 217.823L89.4521 217.449C87.2458 216.916 86.2218 215.883 86.2218 214.21C86.2218 212.137 88.0284 210.713 90.5927 210.713C93.132 210.713 94.872 212.137 94.9303 214.21H93.1153C93.0071 213.011 92.0164 212.287 90.5677 212.287C89.1191 212.287 88.1283 213.019 88.1283 214.085C88.1283 214.934 88.7611 215.434 90.3096 215.817L91.6334 216.141C94.0978 216.724 95.1218 217.715 95.1218 219.472C95.1218 221.72 93.3318 223.127 90.4845 223.127C87.8203 223.127 86.022 221.753 85.9054 219.58ZM101.707 222.927H99.8424V212.52H96.0959V210.913H105.445V212.52H101.707V222.927ZM114.595 221.312V222.927H106.969V210.913H114.595V212.52H108.834V216.033H114.287V217.582H108.834V221.312H114.595ZM128.665 210.913V222.927H126.959V214.085H126.9L123.279 222.835H121.897L118.267 214.085H118.209V222.927H116.51V210.913H118.666L122.554 220.396H122.621L126.501 210.913H128.665Z" fill="#C87239"/>
</g>
</svg>
